<mxfile host="65bd71144e">
    <diagram id="4rAC6FdlzeKcg3H_l45A" name="Page-1">
        <mxGraphModel dx="69" dy="29" grid="1" gridSize="10" guides="1" tooltips="1" connect="1" arrows="1" fold="1" page="1" pageScale="1" pageWidth="827" pageHeight="1169" math="0" shadow="0">
            <root>
                <mxCell id="0"/>
                <mxCell id="1" parent="0"/>
                <mxCell id="3" value="" style="whiteSpace=wrap;html=1;aspect=fixed;fillColor=#FF0000;" vertex="1" parent="1">
                    <mxGeometry x="480" y="200" width="8" height="8" as="geometry"/>
                </mxCell>
                <mxCell id="17" value="" style="whiteSpace=wrap;html=1;aspect=fixed;fillColor=#00FF00;" vertex="1" parent="1">
                    <mxGeometry x="488" y="200" width="8" height="8" as="geometry"/>
                </mxCell>
                <mxCell id="18" value="" style="whiteSpace=wrap;html=1;aspect=fixed;fillColor=#0000ff;" vertex="1" parent="1">
                    <mxGeometry x="480" y="208" width="8" height="8" as="geometry"/>
                </mxCell>
                <mxCell id="19" value="" style="whiteSpace=wrap;html=1;aspect=fixed;" vertex="1" parent="1">
                    <mxGeometry x="488" y="208" width="8" height="8" as="geometry"/>
                </mxCell>
            </root>
        </mxGraphModel>
    </diagram>
</mxfile>